<svg xmlns="http://www.w3.org/2000/svg" viewBox="0 0 240 240" width="240" height="240">
<defs><mask id="hub"><rect width="240" height="240" fill="#fff"></rect><circle cx="120" cy="120" r="54" fill="#000"></circle></mask></defs>
<g mask="url(#hub)"><path d="M 130.657,46.771 L 138.845,17.722 L 164.871,26.178 L 154.421,54.493 L 171.664,67.021 L 195.364,48.332 L 211.449,70.471 L 186.351,87.236 L 192.938,107.506 L 223.096,106.317 L 223.096,133.683 L 192.938,132.494 L 186.351,152.764 L 211.449,169.529 L 195.364,191.668 L 171.664,172.979 L 154.421,185.507 L 164.871,213.822 L 138.845,222.278 L 130.657,193.229 L 109.343,193.229 L 101.155,222.278 L 75.129,213.822 L 85.579,185.507 L 68.336,172.979 L 44.636,191.668 L 28.551,169.529 L 53.649,152.764 L 47.062,132.494 L 16.904,133.683 L 16.904,106.317 L 47.062,107.506 L 53.649,87.236 L 28.551,70.471 L 44.636,48.332 L 68.336,67.021 L 85.579,54.493 L 75.129,26.178 L 101.155,17.722 L 109.343,46.771 Z" fill="#F1E9D7"></path><path d="M 154.421,185.507 L 164.871,213.822 L 138.845,222.278 L 130.657,193.229 Z" fill="#C79A55"></path></g><circle cx="120" cy="120" r="54" fill="none" stroke="#F1E9D7" stroke-width="3"></circle><path d="M 98 90 L 132 90 L 146 104 L 146 150 L 98 150 Z" fill="#F1E9D7" stroke="#14171C" stroke-width="5" stroke-linejoin="round"></path><path d="M 132 90 L 132 104 L 146 104" fill="none" stroke="#14171C" stroke-width="5" stroke-linejoin="round"></path><path d="M 106 132 L 116 142 L 140 116" fill="none" stroke="#B5894A" stroke-width="8" stroke-linecap="round" stroke-linejoin="round"></path>
</svg>