<?xml version="1.0"?>
<svg xmlns="http://www.w3.org/2000/svg" viewBox="0 0 240 240" width="240" height="240" shape-rendering="geometricPrecision">
<g>
  <path d="M 128.061,48.453 L 134.166,25.051 L 148.434,28.307 L 143.780,52.040 L 158.306,59.036 L 173.960,40.600 L 185.402,49.725 L 170.912,69.088 L 180.964,81.694 L 203.067,71.876 L 209.416,85.061 L 187.960,96.220 L 191.547,111.939 L 215.721,112.683 L 215.721,127.317 L 191.547,128.061 L 187.960,143.780 L 209.416,154.939 L 203.067,168.124 L 180.964,158.306 L 170.912,170.912 L 185.402,190.275 L 173.960,199.400 L 158.306,180.964 L 143.780,187.960 L 148.434,211.693 L 134.166,214.949 L 128.061,191.547 L 111.939,191.547 L 105.834,214.949 L 91.566,211.693 L 96.220,187.960 L 81.694,180.964 L 66.040,199.400 L 54.598,190.275 L 69.088,170.912 L 59.036,158.306 L 36.933,168.124 L 30.584,154.939 L 52.040,143.780 L 48.453,128.061 L 24.279,127.317 L 24.279,112.683 L 48.453,111.939 L 52.040,96.220 L 30.584,85.061 L 36.933,71.876 L 59.036,81.694 L 69.088,69.088 L 54.598,49.725 L 66.040,40.600 L 81.694,59.036 L 96.220,52.040 L 91.566,28.307 L 105.834,25.051 L 111.939,48.453 Z" fill="#14171C"></path>
  <circle cx="120" cy="120" r="62" fill="#F1E9D7" stroke="#14171C" stroke-width="2"></circle>
  <circle cx="120" cy="120" r="84" fill="none" stroke="#F1E9D7" stroke-width="1.5" stroke-dasharray="5 4" stroke-opacity="0.6"></circle>
  <circle cx="120" cy="120" r="20" fill="#14171C"></circle>
  <rect x="114" y="92" width="12" height="10" fill="#14171C"></rect>
  <g stroke="#14171C" stroke-width="1.2" stroke-opacity="0.6" stroke-dasharray="14 3 2 3">
    <line x1="4" y1="120" x2="236" y2="120"></line>
    <line x1="120" y1="4" x2="120" y2="236"></line>
  </g>
  <path d="M 116 8 L 124 8 L 120 22 Z" fill="#B5894A"></path>
</g></svg>